<?xml version="1.0" encoding="UTF-8"?>
<!DOCTYPE svg PUBLIC "-//W3C//DTD SVG 1.1//EN" "http://www.w3.org/Graphics/SVG/1.1/DTD/svg11.dtd">
<svg version="1.2" width="84.31mm" height="83.96mm" viewBox="0 0 8431 8396" preserveAspectRatio="xMidYMid" fill-rule="evenodd" stroke-width="28.222" stroke-linejoin="round" xmlns="http://www.w3.org/2000/svg" xmlns:ooo="http://xml.openoffice.org/svg/export" xmlns:xlink="http://www.w3.org/1999/xlink" xmlns:presentation="http://sun.com/xmlns/staroffice/presentation" xmlns:smil="http://www.w3.org/2001/SMIL20/" xmlns:anim="urn:oasis:names:tc:opendocument:xmlns:animation:1.0" xmlns:svg="urn:oasis:names:tc:opendocument:xmlns:svg-compatible:1.0" xml:space="preserve">
 <defs class="ClipPathGroup">
  <clipPath id="presentation_clip_path" clipPathUnits="userSpaceOnUse">
   <rect x="0" y="0" width="8431" height="8396"/>
  </clipPath>
  <clipPath id="presentation_clip_path_shrink" clipPathUnits="userSpaceOnUse">
   <rect x="8" y="8" width="8415" height="8380"/>
  </clipPath>
 </defs>
 <defs class="TextShapeIndex">
  <g ooo:slide="id1" ooo:id-list="id3 id4 id5 id6"/>
 </defs>
 <defs class="EmbeddedBulletChars">
  <g id="bullet-char-template-57356" transform="scale(0.00048828125,-0.00048828125)">
   <path d="M 580,1141 L 1163,571 580,0 -4,571 580,1141 Z"/>
  </g>
  <g id="bullet-char-template-57354" transform="scale(0.00048828125,-0.00048828125)">
   <path d="M 8,1128 L 1137,1128 1137,0 8,0 8,1128 Z"/>
  </g>
  <g id="bullet-char-template-10146" transform="scale(0.00048828125,-0.00048828125)">
   <path d="M 174,0 L 602,739 174,1481 1456,739 174,0 Z M 1358,739 L 309,1346 659,739 1358,739 Z"/>
  </g>
  <g id="bullet-char-template-10132" transform="scale(0.00048828125,-0.00048828125)">
   <path d="M 2015,739 L 1276,0 717,0 1260,543 174,543 174,936 1260,936 717,1481 1274,1481 2015,739 Z"/>
  </g>
  <g id="bullet-char-template-10007" transform="scale(0.00048828125,-0.00048828125)">
   <path d="M 0,-2 C -7,14 -16,27 -25,37 L 356,567 C 262,823 215,952 215,954 215,979 228,992 255,992 264,992 276,990 289,987 310,991 331,999 354,1012 L 381,999 492,748 772,1049 836,1024 860,1049 C 881,1039 901,1025 922,1006 886,937 835,863 770,784 769,783 710,716 594,584 L 774,223 C 774,196 753,168 711,139 L 727,119 C 717,90 699,76 672,76 641,76 570,178 457,381 L 164,-76 C 142,-110 111,-127 72,-127 30,-127 9,-110 8,-76 1,-67 -2,-52 -2,-32 -2,-23 -1,-13 0,-2 Z"/>
  </g>
  <g id="bullet-char-template-10004" transform="scale(0.00048828125,-0.00048828125)">
   <path d="M 285,-33 C 182,-33 111,30 74,156 52,228 41,333 41,471 41,549 55,616 82,672 116,743 169,778 240,778 293,778 328,747 346,684 L 369,508 C 377,444 397,411 428,410 L 1163,1116 C 1174,1127 1196,1133 1229,1133 1271,1133 1292,1118 1292,1087 L 1292,965 C 1292,929 1282,901 1262,881 L 442,47 C 390,-6 338,-33 285,-33 Z"/>
  </g>
  <g id="bullet-char-template-9679" transform="scale(0.00048828125,-0.00048828125)">
   <path d="M 813,0 C 632,0 489,54 383,161 276,268 223,411 223,592 223,773 276,916 383,1023 489,1130 632,1184 813,1184 992,1184 1136,1130 1245,1023 1353,916 1407,772 1407,592 1407,412 1353,268 1245,161 1136,54 992,0 813,0 Z"/>
  </g>
  <g id="bullet-char-template-8226" transform="scale(0.00048828125,-0.00048828125)">
   <path d="M 346,457 C 273,457 209,483 155,535 101,586 74,649 74,723 74,796 101,859 155,911 209,963 273,989 346,989 419,989 480,963 531,910 582,859 608,796 608,723 608,648 583,586 532,535 482,483 420,457 346,457 Z"/>
  </g>
  <g id="bullet-char-template-8211" transform="scale(0.00048828125,-0.00048828125)">
   <path d="M -4,459 L 1135,459 1135,606 -4,606 -4,459 Z"/>
  </g>
  <g id="bullet-char-template-61548" transform="scale(0.00048828125,-0.00048828125)">
   <path d="M 173,740 C 173,903 231,1043 346,1159 462,1274 601,1332 765,1332 928,1332 1067,1274 1183,1159 1299,1043 1357,903 1357,740 1357,577 1299,437 1183,322 1067,206 928,148 765,148 601,148 462,206 346,322 231,437 173,577 173,740 Z"/>
  </g>
 </defs>
 <g>
  <g id="id2" class="Master_Slide">
   <g id="bg-id2" class="Background"/>
   <g id="bo-id2" class="BackgroundObjects"/>
  </g>
 </g>
 <g class="SlideGroup">
  <g>
   <g id="container-id1">
    <g id="id1" class="Slide" clip-path="url(#presentation_clip_path)">
     <g class="Page">
      <g class="com.sun.star.drawing.ClosedBezierShape">
       <g id="id3">
        <rect class="BoundingBox" stroke="none" fill="none" x="0" y="-1" width="8433" height="8399"/>
        <path fill="rgb(78,102,255)" fill-opacity="0.969" stroke="none" d="M 1834,0 L 6597,-1 C 7611,-1 8432,821 8432,1834 L 8432,6562 C 8432,7575 7611,8397 6597,8397 L 1834,8397 C 821,8397 0,7575 0,6562 L 0,1834 C 0,821 821,0 1834,0 Z"/>
       </g>
      </g>
      <g class="com.sun.star.drawing.ClosedBezierShape">
       <g id="id4">
        <rect class="BoundingBox" stroke="none" fill="none" x="670" y="776" width="7199" height="6846"/>
        <path fill="rgb(241,240,240)" stroke="none" d="M 7867,4199 C 7867,4311 7862,4422 7850,4534 7839,4645 7821,4756 7798,4866 7775,4976 7747,5085 7713,5192 7678,5299 7639,5405 7594,5508 7548,5612 7498,5713 7443,5812 7387,5910 7326,6007 7261,6100 7196,6193 7125,6283 7051,6369 6976,6456 6897,6539 6814,6618 6730,6697 6643,6773 6552,6844 6461,6915 6366,6982 6268,7044 6170,7106 6069,7164 5965,7216 5861,7269 5755,7317 5646,7360 5537,7403 5426,7441 5314,7473 5201,7506 5087,7533 4971,7555 4856,7577 4739,7593 4622,7604 4505,7615 4387,7620 4269,7620 4151,7620 4034,7615 3916,7604 3799,7593 3683,7577 3566,7555 3451,7533 3336,7506 3224,7473 3111,7441 3000,7403 2891,7360 2782,7317 2676,7269 2572,7216 2468,7164 2367,7106 2269,7044 2171,6982 2076,6915 1985,6844 1894,6773 1807,6697 1724,6618 1640,6539 1561,6456 1487,6369 1412,6283 1342,6193 1276,6100 1211,6006 1150,5910 1095,5812 1039,5713 989,5612 944,5508 899,5405 859,5299 825,5192 791,5085 762,4976 739,4866 716,4756 699,4645 687,4534 676,4422 670,4311 670,4199 670,4086 676,3975 687,3863 699,3752 716,3641 739,3531 762,3420 791,3311 825,3204 859,3097 899,2992 944,2888 989,2784 1039,2683 1095,2584 1150,2486 1211,2390 1276,2296 1342,2203 1412,2113 1487,2027 1561,1940 1640,1857 1724,1778 1807,1699 1894,1623 1985,1552 2076,1481 2171,1415 2269,1352 2367,1290 2468,1233 2572,1180 2676,1127 2782,1079 2891,1036 3000,993 3111,955 3224,923 3336,890 3451,863 3566,841 3683,819 3799,803 3916,792 4034,781 4151,776 4269,776 4387,776 4505,781 4622,792 4739,803 4856,819 4971,841 5087,863 5201,890 5314,923 5426,955 5537,993 5646,1036 5755,1079 5861,1127 5965,1180 6069,1233 6170,1290 6268,1352 6366,1415 6461,1481 6552,1552 6643,1623 6730,1699 6814,1778 6897,1857 6976,1940 7051,2027 7125,2113 7196,2203 7261,2296 7326,2390 7387,2486 7443,2584 7498,2683 7548,2784 7594,2888 7639,2992 7678,3097 7713,3204 7747,3311 7775,3420 7798,3531 7821,3641 7839,3752 7850,3863 7862,3975 7867,4086 7867,4199 Z"/>
       </g>
      </g>
      <g class="com.sun.star.drawing.ClosedBezierShape">
       <g id="id5">
        <rect class="BoundingBox" stroke="none" fill="none" x="3033" y="2963" width="2366" height="2436"/>
        <path fill="rgb(78,102,255)" fill-opacity="0.969" stroke="none" d="M 5398,4181 C 5398,4261 5390,4340 5375,4418 5360,4497 5338,4573 5308,4647 5278,4721 5242,4791 5199,4857 5156,4924 5107,4985 5052,5042 4997,5098 4937,5148 4873,5193 4808,5237 4740,5275 4668,5305 4597,5336 4523,5359 4447,5375 4371,5390 4294,5398 4216,5398 4139,5398 4062,5390 3986,5375 3910,5359 3836,5336 3764,5305 3692,5275 3624,5237 3560,5193 3494,5148 3434,5098 3380,5042 3325,4985 3276,4924 3233,4857 3189,4791 3153,4721 3123,4647 3094,4573 3071,4497 3056,4418 3041,4340 3033,4261 3033,4181 3033,4101 3041,4022 3056,3943 3071,3865 3094,3789 3123,3715 3153,3640 3189,3570 3233,3504 3276,3437 3325,3376 3380,3319 3434,3263 3494,3212 3560,3168 3624,3124 3692,3086 3764,3055 3836,3025 3910,3002 3986,2986 4062,2971 4139,2963 4216,2963 4294,2963 4371,2971 4447,2986 4523,3002 4597,3025 4668,3055 4740,3086 4808,3124 4873,3168 4937,3212 4997,3263 5052,3319 5107,3376 5156,3437 5199,3504 5242,3570 5278,3640 5308,3715 5338,3789 5360,3865 5375,3943 5390,4022 5398,4101 5398,4181 Z"/>
       </g>
      </g>
      <g class="com.sun.star.drawing.PolyPolygonShape">
       <g id="id6">
        <rect class="BoundingBox" stroke="none" fill="none" x="5332" y="5337" width="1755" height="1886"/>
        <path fill="rgb(0,0,0)" stroke="none" d="M 5462,5337 L 7086,7102 6956,7222 5332,5457 5462,5337 Z"/>
       </g>
      </g>
     </g>
    </g>
   </g>
  </g>
 </g>
</svg>