<?xml version="1.0" encoding="UTF-8"?>
<!DOCTYPE svg PUBLIC "-//W3C//DTD SVG 1.1//EN" "http://www.w3.org/Graphics/SVG/1.1/DTD/svg11.dtd">
<svg version="1.2" width="233.18mm" height="248.35mm" viewBox="0 0 23318 24835" preserveAspectRatio="xMidYMid" fill-rule="evenodd" stroke-width="28.222" stroke-linejoin="round" xmlns="http://www.w3.org/2000/svg" xmlns:ooo="http://xml.openoffice.org/svg/export" xmlns:xlink="http://www.w3.org/1999/xlink" xmlns:presentation="http://sun.com/xmlns/staroffice/presentation" xmlns:smil="http://www.w3.org/2001/SMIL20/" xmlns:anim="urn:oasis:names:tc:opendocument:xmlns:animation:1.0" xmlns:svg="urn:oasis:names:tc:opendocument:xmlns:svg-compatible:1.0" xml:space="preserve">
 <defs class="ClipPathGroup">
  <clipPath id="presentation_clip_path" clipPathUnits="userSpaceOnUse">
   <rect x="0" y="0" width="23318" height="24835"/>
  </clipPath>
  <clipPath id="presentation_clip_path_shrink" clipPathUnits="userSpaceOnUse">
   <rect x="23" y="24" width="23272" height="24786"/>
  </clipPath>
 </defs>
 <defs class="TextShapeIndex">
  <g ooo:slide="id1" ooo:id-list="id3 id4 id5 id6 id7 id8 id9 id10 id11"/>
 </defs>
 <defs class="EmbeddedBulletChars">
  <g id="bullet-char-template-57356" transform="scale(0.00048828125,-0.00048828125)">
   <path d="M 580,1141 L 1163,571 580,0 -4,571 580,1141 Z"/>
  </g>
  <g id="bullet-char-template-57354" transform="scale(0.00048828125,-0.00048828125)">
   <path d="M 8,1128 L 1137,1128 1137,0 8,0 8,1128 Z"/>
  </g>
  <g id="bullet-char-template-10146" transform="scale(0.00048828125,-0.00048828125)">
   <path d="M 174,0 L 602,739 174,1481 1456,739 174,0 Z M 1358,739 L 309,1346 659,739 1358,739 Z"/>
  </g>
  <g id="bullet-char-template-10132" transform="scale(0.00048828125,-0.00048828125)">
   <path d="M 2015,739 L 1276,0 717,0 1260,543 174,543 174,936 1260,936 717,1481 1274,1481 2015,739 Z"/>
  </g>
  <g id="bullet-char-template-10007" transform="scale(0.00048828125,-0.00048828125)">
   <path d="M 0,-2 C -7,14 -16,27 -25,37 L 356,567 C 262,823 215,952 215,954 215,979 228,992 255,992 264,992 276,990 289,987 310,991 331,999 354,1012 L 381,999 492,748 772,1049 836,1024 860,1049 C 881,1039 901,1025 922,1006 886,937 835,863 770,784 769,783 710,716 594,584 L 774,223 C 774,196 753,168 711,139 L 727,119 C 717,90 699,76 672,76 641,76 570,178 457,381 L 164,-76 C 142,-110 111,-127 72,-127 30,-127 9,-110 8,-76 1,-67 -2,-52 -2,-32 -2,-23 -1,-13 0,-2 Z"/>
  </g>
  <g id="bullet-char-template-10004" transform="scale(0.00048828125,-0.00048828125)">
   <path d="M 285,-33 C 182,-33 111,30 74,156 52,228 41,333 41,471 41,549 55,616 82,672 116,743 169,778 240,778 293,778 328,747 346,684 L 369,508 C 377,444 397,411 428,410 L 1163,1116 C 1174,1127 1196,1133 1229,1133 1271,1133 1292,1118 1292,1087 L 1292,965 C 1292,929 1282,901 1262,881 L 442,47 C 390,-6 338,-33 285,-33 Z"/>
  </g>
  <g id="bullet-char-template-9679" transform="scale(0.00048828125,-0.00048828125)">
   <path d="M 813,0 C 632,0 489,54 383,161 276,268 223,411 223,592 223,773 276,916 383,1023 489,1130 632,1184 813,1184 992,1184 1136,1130 1245,1023 1353,916 1407,772 1407,592 1407,412 1353,268 1245,161 1136,54 992,0 813,0 Z"/>
  </g>
  <g id="bullet-char-template-8226" transform="scale(0.00048828125,-0.00048828125)">
   <path d="M 346,457 C 273,457 209,483 155,535 101,586 74,649 74,723 74,796 101,859 155,911 209,963 273,989 346,989 419,989 480,963 531,910 582,859 608,796 608,723 608,648 583,586 532,535 482,483 420,457 346,457 Z"/>
  </g>
  <g id="bullet-char-template-8211" transform="scale(0.00048828125,-0.00048828125)">
   <path d="M -4,459 L 1135,459 1135,606 -4,606 -4,459 Z"/>
  </g>
  <g id="bullet-char-template-61548" transform="scale(0.00048828125,-0.00048828125)">
   <path d="M 173,740 C 173,903 231,1043 346,1159 462,1274 601,1332 765,1332 928,1332 1067,1274 1183,1159 1299,1043 1357,903 1357,740 1357,577 1299,437 1183,322 1067,206 928,148 765,148 601,148 462,206 346,322 231,437 173,577 173,740 Z"/>
  </g>
 </defs>
 <g>
  <g id="id2" class="Master_Slide">
   <g id="bg-id2" class="Background"/>
   <g id="bo-id2" class="BackgroundObjects"/>
  </g>
 </g>
 <g class="SlideGroup">
  <g>
   <g id="container-id1">
    <g id="id1" class="Slide" clip-path="url(#presentation_clip_path)">
     <g class="Page">
      <g class="com.sun.star.drawing.ClosedBezierShape">
       <g id="id3">
        <rect class="BoundingBox" stroke="none" fill="none" x="0" y="-1" width="23320" height="24838"/>
        <path fill="rgb(0,0,0)" stroke="none" d="M 2857,0 L 20462,-1 C 22040,-1 23319,1279 23319,2857 L 23319,21979 C 23319,23557 22040,24836 20462,24836 L 2857,24836 C 1279,24836 0,23557 0,21979 L 0,2857 C 0,1279 1279,0 2857,0 Z"/>
       </g>
      </g>
      <g class="com.sun.star.drawing.ClosedBezierShape">
       <g id="id4">
        <rect class="BoundingBox" stroke="none" fill="none" x="1693" y="2928" width="6035" height="18981"/>
        <path fill="rgb(255,78,123)" fill-opacity="0.969" stroke="none" d="M 3916,2928 L 5504,2928 C 6731,2928 7726,3923 7726,5150 L 7726,19686 C 7726,20913 6731,21908 5504,21908 L 3916,21908 C 2688,21908 1693,20913 1693,19686 L 1693,5150 C 1693,3923 2688,2928 3916,2928 Z"/>
       </g>
      </g>
      <g class="com.sun.star.drawing.ClosedBezierShape">
       <g id="id5">
        <rect class="BoundingBox" stroke="none" fill="none" x="8643" y="12065" width="6034" height="9845"/>
        <path fill="rgb(78,255,110)" fill-opacity="0.969" stroke="none" d="M 8643,19687 L 8643,14288 C 8643,14142 8657,13998 8685,13854 8714,13711 8756,13572 8812,13437 8868,13303 8936,13175 9017,13053 9099,12932 9191,12820 9295,12716 9398,12613 9510,12521 9631,12440 9753,12359 9881,12291 10016,12235 10150,12179 10289,12137 10432,12108 10576,12080 10720,12065 10866,12065 L 12454,12065 C 12599,12065 12744,12080 12887,12108 13030,12137 13169,12179 13304,12235 13439,12291 13567,12359 13688,12440 13810,12521 13922,12613 14025,12716 14128,12820 14220,12932 14301,13053 14383,13175 14451,13303 14507,13437 14563,13572 14605,13711 14633,13854 14662,13998 14676,14142 14676,14288 L 14676,19687 C 14676,19832 14662,19977 14633,20120 14605,20263 14563,20402 14507,20537 14451,20672 14383,20800 14301,20921 14220,21043 14128,21155 14025,21258 13922,21361 13810,21453 13688,21534 13567,21616 13439,21684 13304,21740 13169,21796 13030,21838 12887,21866 12744,21895 12599,21909 12454,21909 L 10866,21909 C 10720,21909 10576,21895 10432,21866 10289,21838 10150,21796 10016,21740 9881,21684 9753,21616 9631,21534 9510,21453 9398,21361 9295,21258 9191,21155 9099,21043 9017,20921 8936,20800 8868,20672 8812,20537 8756,20402 8714,20263 8685,20120 8657,19977 8643,19832 8643,19687 Z"/>
       </g>
      </g>
      <g class="com.sun.star.drawing.ClosedBezierShape">
       <g id="id6">
        <rect class="BoundingBox" stroke="none" fill="none" x="15592" y="7055" width="6035" height="14854"/>
        <path fill="rgb(78,102,255)" fill-opacity="0.969" stroke="none" d="M 17815,7055 L 19402,7055 C 20630,7055 21626,8051 21626,9279 L 21626,19686 C 21626,20913 20630,21908 19402,21908 L 17815,21908 C 16587,21908 15592,20913 15592,19686 L 15592,9279 C 15592,8051 16587,7055 17815,7055 Z"/>
       </g>
      </g>
      <g class="com.sun.star.drawing.ClosedBezierShape">
       <g id="id7">
        <rect class="BoundingBox" stroke="none" fill="none" x="9947" y="1305" width="3425" height="8680"/>
        <path fill="rgb(255,255,255)" stroke="none" d="M 9948,3016 C 9948,2071 10714,1305 11659,1305 12605,1305 13371,2071 13371,3016 L 13371,8273 C 13371,9218 12605,9984 11659,9984 10714,9984 9948,9218 9948,8273 L 9948,3016 Z"/>
       </g>
      </g>
      <g class="com.sun.star.drawing.ClosedBezierShape">
       <g id="id8">
        <rect class="BoundingBox" stroke="none" fill="none" x="7337" y="3915" width="8611" height="3460"/>
        <path fill="rgb(255,255,255)" stroke="none" d="M 9066,7374 C 8111,7374 7337,6600 7337,5645 7337,4689 8111,3915 9066,3915 L 14217,3915 C 15172,3915 15946,4689 15946,5645 15946,6600 15172,7374 14217,7374 L 9066,7374 Z"/>
       </g>
      </g>
      <g class="com.sun.star.drawing.ClosedBezierShape">
       <g id="id9">
        <rect class="BoundingBox" stroke="none" fill="none" x="2928" y="4797" width="3560" height="3390"/>
        <path fill="rgb(0,0,0)" stroke="none" d="M 5752,6075 C 5637,6075 5535,5997 5510,5890 L 5478,5750 C 5348,5190 4835,4797 4232,4797 3513,4797 2928,5356 2928,6040 L 2928,7479 C 2928,7868 3260,8185 3669,8185 L 5745,8185 C 6154,8185 6487,7868 6487,7479 L 6487,6774 C 6487,6389 6157,6075 5752,6075 Z M 4232,5222 C 4624,5222 4958,5476 5042,5841 L 5075,5981 C 5146,6286 5425,6498 5752,6498 5912,6498 6042,6622 6042,6774 L 3372,6774 3372,6040 C 3372,5589 3758,5222 4232,5222 Z M 5745,7762 L 3669,7762 C 3505,7762 3372,7635 3372,7479 L 3372,7197 3669,7197 3669,7409 C 3669,7526 3768,7621 3891,7621 4014,7621 4114,7526 4114,7409 L 4114,7197 4410,7197 4410,7409 C 4410,7526 4510,7621 4632,7621 4755,7621 4855,7526 4855,7409 L 4855,7197 5300,7197 5300,7409 C 5300,7526 5400,7621 5523,7621 5646,7621 5745,7526 5745,7409 L 5745,7197 6042,7197 6042,7479 C 6042,7635 5909,7762 5745,7762 Z"/>
       </g>
      </g>
      <g class="com.sun.star.drawing.ClosedBezierShape">
       <g id="id10">
        <rect class="BoundingBox" stroke="none" fill="none" x="16898" y="8183" width="3425" height="3426"/>
        <path fill="rgb(0,0,0)" stroke="none" d="M 18897,9752 C 18834,9752 18789,9722 18765,9664 18740,9605 18751,9553 18795,9508 L 19220,9085 C 19058,8953 18873,8891 18663,8897 18455,8903 18274,8977 18120,9118 18097,9141 18076,9165 18056,9190 18002,9268 17928,9314 17835,9327 17584,9344 17370,9441 17192,9618 16771,10040 16807,10763 17275,11231 17517,11477 17811,11603 18156,11607 18441,11611 18684,11513 18888,11313 19065,11135 19162,10921 19179,10671 19192,10577 19238,10503 19316,10449 19342,10430 19366,10408 19388,10386 19529,10232 19603,10051 19609,9842 19615,9634 19553,9449 19422,9287 L 18998,9710 C 18970,9738 18937,9752 18897,9752 Z M 17998,10994 C 17931,11061 17864,11061 17797,10994 L 17511,10709 C 17446,10642 17447,10575 17513,10509 17579,10443 17646,10442 17713,10507 L 17998,10792 C 18066,10860 18066,10927 17998,10994 Z M 18326,10608 C 18207,10608 18106,10566 18023,10483 17939,10399 17897,10298 17897,10180 17897,10062 17939,9961 18023,9877 18106,9794 18207,9752 18326,9752 18444,9752 18545,9794 18628,9877 18712,9961 18754,10062 18754,10180 18754,10298 18712,10399 18628,10483 18545,10566 18444,10608 18326,10608 Z M 18468,10180 C 18468,10275 18421,10323 18326,10323 18230,10323 18183,10275 18183,10180 18183,10085 18230,10037 18326,10037 18421,10037 18468,10085 18468,10180 Z M 20250,8613 L 20220,8643 C 20114,8749 19990,8822 19846,8862 L 19422,9287 C 19394,9248 19363,9211 19330,9177 19295,9143 19259,9113 19220,9085 L 19644,8660 C 19685,8516 19758,8391 19863,8286 L 19894,8255 C 19943,8207 20002,8183 20071,8184 20140,8185 20199,8209 20248,8258 20296,8307 20321,8365 20321,8434 20322,8503 20298,8563 20250,8613 Z"/>
       </g>
      </g>
      <g class="com.sun.star.drawing.ClosedBezierShape">
       <g id="id11">
        <rect class="BoundingBox" stroke="none" fill="none" x="10865" y="13017" width="1590" height="2330"/>
        <path fill="rgb(0,0,0)" stroke="none" d="M 12360,13017 L 12127,13017 C 11894,13017 11705,13213 11705,13454 L 11705,14401 C 11617,14324 11503,14278 11379,14278 11096,14278 10865,14518 10865,14812 10865,15106 11096,15346 11379,15346 11662,15346 11892,15106 11892,14812 L 11892,13454 C 11892,13320 11998,13211 12127,13211 L 12360,13211 C 12412,13211 12454,13168 12454,13114 12454,13060 12412,13017 12360,13017 Z"/>
       </g>
      </g>
     </g>
    </g>
   </g>
  </g>
 </g>
</svg>